<?xml version="1.0" standalone="no"?>
<!DOCTYPE svg PUBLIC "-//W3C//DTD SVG 20010904//EN"
 "http://www.w3.org/TR/2001/REC-SVG-20010904/DTD/svg10.dtd">
<svg version="1.0" xmlns="http://www.w3.org/2000/svg"
 width="300.000000pt" height="198.000000pt" viewBox="0 0 300.000000 198.000000"
 preserveAspectRatio="xMidYMid meet">

<g transform="translate(0.000000,198.000000) scale(0.100000,-0.100000)"
fill="#000000" stroke="none">
<path d="M850 1804 c-147 -53 -268 -203 -305 -382 -41 -191 18 -403 147 -532
32 -32 67 -62 78 -65 22 -7 27 -24 8 -29 -7 -3 -44 -14 -83 -25 -76 -23 -103
-36 -93 -46 26 -26 432 -21 733 10 385 39 738 95 948 150 176 45 198 73 68 83
-39 2 -71 6 -71 7 0 2 26 30 58 62 48 50 62 72 82 132 57 177 -12 367 -161
447 -42 23 -252 32 -316 15 -66 -18 -134 -70 -170 -131 -18 -30 -33 -57 -33
-61 0 -4 16 -9 35 -11 29 -3 40 1 67 30 67 69 155 90 236 57 51 -22 81 -52
108 -110 47 -100 25 -208 -57 -278 -74 -64 -150 -70 -236 -21 -24 14 -48 34
-53 45 -9 16 -19 19 -53 17 -37 -3 -42 -6 -39 -26 4 -39 62 -113 113 -145 27
-16 49 -33 49 -37 0 -4 -53 -12 -117 -19 -65 -6 -146 -14 -181 -18 -53 -5 -71
-12 -105 -40 -47 -40 -115 -76 -169 -91 -51 -14 -48 0 6 32 99 58 193 198 227
336 16 68 16 198 -1 271 -34 150 -139 293 -258 351 l-66 33 -176 2 c-140 2
-184 -1 -220 -13z m207 -145 c72 -28 149 -101 158 -152 21 -112 -123 -200
-216 -132 -19 13 -45 32 -58 42 -52 38 -128 11 -163 -58 -23 -43 -23 -85 0
-128 39 -77 115 -96 180 -44 54 43 76 53 121 53 84 0 145 -99 111 -180 -17
-42 -82 -96 -138 -114 -191 -66 -386 72 -422 298 -18 113 8 217 77 308 87 114
221 155 350 107z m-177 -281 c0 -19 -31 -48 -52 -48 -22 0 -23 18 -1 42 18 20
53 24 53 6z"/>
<path d="M2100 1445 c0 -4 5 -15 10 -26 36 -66 28 -179 -15 -244 -26 -38 -17
-47 14 -16 58 58 72 162 33 238 -20 38 -42 63 -42 48z"/>
<path d="M1632 1388 c3 -9 62 -18 191 -29 103 -8 190 -18 193 -22 9 -9 17 -9
-192 -7 l-181 1 -7 -67 c-4 -36 -4 -69 -1 -72 10 -11 407 46 420 60 26 27 27
55 3 82 -22 24 -34 27 -200 46 -210 24 -231 24 -226 8z"/>
<path d="M734 426 c-49 -22 -73 -110 -54 -201 16 -77 45 -98 124 -93 67 5 96
29 96 79 0 26 -3 29 -35 29 -24 0 -37 -6 -45 -21 -7 -13 -19 -19 -33 -17 -48
7 -47 159 1 166 18 3 26 -3 35 -27 9 -26 17 -31 44 -31 31 0 33 2 33 36 0 48
-14 70 -51 83 -42 14 -77 13 -115 -3z"/>
<path d="M1022 293 c-18 -76 -32 -144 -32 -150 0 -8 14 -13 36 -13 30 0 37 4
45 30 9 24 17 30 39 30 24 0 29 -5 32 -27 3 -24 8 -29 37 -31 18 -2 37 0 42 5
6 7 -13 102 -56 270 -5 20 -11 23 -58 23 l-54 0 -31 -137z m98 -19 c0 -8 -4
-14 -10 -14 -5 0 -10 9 -10 21 0 11 5 17 10 14 6 -3 10 -13 10 -21z"/>
<path d="M1320 279 l0 -150 38 3 c37 3 37 4 43 53 l5 50 16 -35 c8 -19 18 -43
21 -52 5 -13 17 -18 47 -18 22 0 40 4 40 9 0 5 -9 30 -20 56 l-20 47 20 25
c30 38 27 107 -5 138 -22 22 -32 25 -105 25 l-80 0 0 -151z m118 82 c22 -13
11 -56 -15 -59 -19 -3 -23 1 -23 26 0 40 12 50 38 33z"/>
<path d="M1632 283 l3 -148 93 -3 92 -3 0 35 0 35 -52 3 c-46 3 -53 6 -56 25
-3 20 2 22 45 25 46 3 48 4 48 33 0 29 -2 30 -48 33 -43 3 -48 5 -45 25 3 19
10 22 56 25 50 3 52 4 52 33 l0 29 -95 0 -96 0 3 -147z"/>
<path d="M1930 280 l0 -150 35 0 35 0 0 150 0 150 -35 0 -35 0 0 -150z"/>
<path d="M2100 400 c0 -25 4 -30 23 -30 41 0 47 -17 47 -132 l0 -108 35 0 c42
0 44 6 48 140 l2 95 28 3 c23 3 27 8 27 33 l0 29 -105 0 -105 0 0 -30z"/>
</g>
</svg>
